<svg width="14" height="15" viewBox="0 0 14 15" fill="none" xmlns="http://www.w3.org/2000/svg">
<path fill-rule="evenodd" clip-rule="evenodd" d="M8.21615 2.85096C9.81345 2.85096 11.1077 4.12766 11.1077 5.70191C11.1077 4.12705 12.4026 2.85096 13.9993 2.85096C12.402 2.85096 11.1077 1.57425 11.1077 0C11.1077 1.57486 9.81284 2.85096 8.21615 2.85096ZM5.54562 2.9449C5.55207 2.91571 5.55856 2.88637 5.56509 2.85687C5.56509 2.85687 5.59937 2.62308 5.76384 2.62308C5.9117 2.62308 5.9626 2.85692 5.9626 2.85692C6.7014 6.71696 7.58963 7.3963 11.3289 8.2067C11.3289 8.2067 11.5277 8.24137 11.5277 8.40483C11.5277 8.5683 11.3289 8.60297 11.3289 8.60297C7.50898 9.22733 6.61477 10.421 5.9626 13.9527C5.9626 13.9527 5.93465 14.1508 5.76384 14.1508C5.59304 14.1508 5.56509 13.9527 5.56509 13.9527C4.75709 10.1304 3.88282 9.28083 0.19877 8.60297C0.19877 8.60297 -1.45519e-09 8.57445 0 8.40483C1.45519e-09 8.23522 0.198754 8.2067 0.198754 8.2067C4.57557 7.3307 4.88146 5.94769 5.54562 2.9449Z" fill="black"/>
</svg>
