<svg width="24" height="25" viewBox="0 0 24 25" fill="none" xmlns="http://www.w3.org/2000/svg">
<path fill-rule="evenodd" clip-rule="evenodd" d="M14.0859 4.88774C16.8244 4.88774 19.0433 7.07654 19.0433 9.77548C19.0433 7.0755 21.2633 4.88774 24.0007 4.88774C21.2623 4.88774 19.0433 2.69894 19.0433 0C19.0433 2.69997 16.8233 4.88774 14.0859 4.88774ZM9.50752 5.04879C9.51859 4.99875 9.52971 4.94845 9.54091 4.89788C9.54091 4.89788 9.59967 4.49707 9.88165 4.49707C10.1351 4.49707 10.2224 4.89796 10.2224 4.89796C11.489 11.5157 13.0118 12.6804 19.4226 14.0697C19.4226 14.0697 19.7633 14.1292 19.7633 14.4094C19.7633 14.6897 19.4226 14.7491 19.4226 14.7491C12.8736 15.8195 11.3405 17.866 10.2224 23.9207C10.2224 23.9207 10.1745 24.2604 9.88165 24.2604C9.58882 24.2604 9.54091 23.9207 9.54091 23.9207C8.15565 17.3678 6.65678 15.9113 0.340776 14.7491C0.340776 14.7491 0 14.7002 0 14.4094C0 14.1186 0.340747 14.0697 0.340747 14.0697C7.84446 12.5679 8.36888 10.1968 9.50752 5.04879Z" fill="url(#paint0_linear_1026_11167)"/>
<defs>
<linearGradient id="paint0_linear_1026_11167" x1="19.7638" y1="-1.14961" x2="12.0006" y2="24.2605" gradientUnits="userSpaceOnUse">
<stop stop-color="#26C0FB"/>
<stop offset="1" stop-color="#991CFF"/>
</linearGradient>
</defs>
</svg>
