<svg width="22" height="24" viewBox="0 0 22 24" fill="none" xmlns="http://www.w3.org/2000/svg">
<path d="M21.487 21.4062L19.0807 2.15625C19.0274 1.73325 18.8216 1.34425 18.5018 1.0623C18.1819 0.780354 17.7702 0.624854 17.3439 0.625H4.65636C4.23002 0.624854 3.81828 0.780354 3.49847 1.0623C3.17866 1.34425 2.97278 1.73325 2.91949 2.15625L0.513238 21.4062C0.482196 21.6526 0.503948 21.9028 0.577048 22.1401C0.650148 22.3775 0.772922 22.5965 0.93721 22.7827C1.1015 22.969 1.30354 23.1181 1.52991 23.2202C1.75627 23.3223 2.00178 23.3751 2.25011 23.375H6.70058C7.08976 23.3751 7.46786 23.2454 7.77509 23.0065C8.08232 22.7676 8.30115 22.4331 8.39699 22.0559L11.0001 11.9934L13.6021 22.0494C13.6968 22.428 13.9152 22.7641 14.2228 23.0043C14.5304 23.2444 14.9094 23.3749 15.2996 23.375H19.7501C19.9984 23.3751 20.244 23.3223 20.4703 23.2202C20.6967 23.1181 20.8987 22.969 21.063 22.7827C21.2273 22.5965 21.3501 22.3775 21.4232 22.1401C21.4963 21.9028 21.518 21.6526 21.487 21.4062ZM18.0985 8.4125C17.4725 8.26881 16.8979 7.9563 16.437 7.50894C15.9762 7.06157 15.6467 6.49646 15.4845 5.875H17.7814L18.0985 8.4125ZM17.3439 2.375L17.5626 4.125H4.43761L4.65636 2.375H17.3439ZM4.21886 5.875H6.51574C6.35351 6.49646 6.02406 7.06157 5.5632 7.50894C5.10233 7.9563 4.52768 8.26881 3.90167 8.4125L4.21886 5.875ZM6.70058 21.625H2.25011L3.67199 10.2205C4.81164 10.0995 5.88058 9.60949 6.71613 8.82507C7.55168 8.04066 8.10811 7.00476 8.30074 5.875H10.1251V8.39062L6.70058 21.625ZM15.2975 21.6184L11.8751 8.39062V5.875H13.6995C13.8921 7.00476 14.4485 8.04066 15.2841 8.82507C16.1196 9.60949 17.1886 10.0995 18.3282 10.2205L19.7501 21.625L15.2975 21.6184Z" fill="white"/>
</svg>
