<svg width="59" height="50" viewBox="0 0 59 50" fill="none" xmlns="http://www.w3.org/2000/svg">
<g opacity="0.2" filter="url(#filter0_d_1203_6170)">
<path fill-rule="evenodd" clip-rule="evenodd" d="M23.8333 42H35.1667C43.1257 42 47.1045 42 49.9633 40.2843C51.2003 39.5416 52.2628 38.5868 53.0898 37.4752C55 34.9069 55 31.332 55 24.1822C55 17.0324 55 13.4575 53.0898 10.8892C52.2628 9.7776 51.2003 8.8228 49.9633 8.0801C48.1265 6.9776 45.8269 6.5835 42.3064 6.4428C40.6265 6.4428 39.1799 5.299 38.8502 3.8192C38.3552 1.5981 36.1857 0 33.6658 0H25.3342C22.8143 0 20.6448 1.5981 20.1498 3.8185C19.8201 5.2983 18.3735 6.4421 16.6936 6.4421C13.1731 6.5828 10.8735 6.9769 9.03673 8.0794C7.79897 8.8221 6.73639 9.7769 5.9102 10.8885C4 13.4568 4 17.0317 4 24.1815C4 31.3313 4 34.9069 5.9102 37.4745C6.73716 38.5861 7.79974 39.5409 9.03673 40.2836C11.8955 41.9993 15.8743 42 23.8333 42ZM29.4996 14.6363C23.6313 14.6363 18.8746 18.9098 18.8746 24.1815C18.8746 29.4532 23.6313 33.7267 29.4996 33.7267C35.3679 33.7267 40.1246 29.4532 40.1246 24.1815C40.1246 18.9098 35.3679 14.6363 29.4996 14.6363ZM29.4996 18.4548C25.9791 18.4548 23.1249 21.0189 23.1249 24.1822C23.1249 27.3455 25.9791 29.9096 29.4996 29.9096C33.0201 29.9096 35.8743 27.3455 35.8743 24.1822C35.8743 21.0189 33.0201 18.4548 29.4996 18.4548ZM41.5414 16.5452C41.5414 15.491 42.4931 14.6363 43.6666 14.6363H46.5001C47.6736 14.6363 48.6253 15.491 48.6253 16.5452C48.6253 17.5994 47.6736 18.4541 46.5001 18.4541H43.6666C42.4931 18.4541 41.5414 17.5994 41.5414 16.5452Z" fill="white"/>
</g>
<defs>
<filter id="filter0_d_1203_6170" x="0.262821" y="0" width="58.4744" height="49.4744" filterUnits="userSpaceOnUse" color-interpolation-filters="sRGB">
<feFlood flood-opacity="0" result="BackgroundImageFix"/>
<feColorMatrix in="SourceAlpha" type="matrix" values="0 0 0 0 0 0 0 0 0 0 0 0 0 0 0 0 0 0 127 0" result="hardAlpha"/>
<feOffset dy="3.73718"/>
<feGaussianBlur stdDeviation="1.86859"/>
<feComposite in2="hardAlpha" operator="out"/>
<feColorMatrix type="matrix" values="0 0 0 0 0 0 0 0 0 0 0 0 0 0 0 0 0 0 0.3 0"/>
<feBlend mode="normal" in2="BackgroundImageFix" result="effect1_dropShadow_1203_6170"/>
<feBlend mode="normal" in="SourceGraphic" in2="effect1_dropShadow_1203_6170" result="shape"/>
</filter>
</defs>
</svg>
