<svg width="14" height="14" viewBox="0 0 14 14" fill="none" xmlns="http://www.w3.org/2000/svg">
<path fill-rule="evenodd" clip-rule="evenodd" d="M4.33513 2.35059H9.98713C10.3552 2.35061 10.7103 2.48593 10.9851 2.7308C11.2598 2.97567 11.4349 3.31299 11.4771 3.67859L12.2851 10.6786C12.3094 10.8887 12.2889 11.1015 12.2251 11.3032C12.1613 11.5048 12.0556 11.6907 11.9149 11.8485C11.7742 12.0064 11.6017 12.1328 11.4087 12.2193C11.2157 12.3058 11.0066 12.3506 10.7951 12.3506H3.52713C3.31564 12.3506 3.10655 12.3058 2.91357 12.2193C2.72059 12.1328 2.54809 12.0064 2.40738 11.8485C2.26668 11.6907 2.16095 11.5048 2.09714 11.3032C2.03333 11.1015 2.01288 10.8887 2.03713 10.6786L2.84513 3.67859C2.88733 3.31299 3.06246 2.97567 3.3372 2.7308C3.61194 2.48593 3.96711 2.35061 4.33513 2.35059ZM1.35513 3.50659C1.43953 2.7754 1.78979 2.10075 2.33927 1.61101C2.88874 1.12128 3.59909 0.850638 4.33513 0.850586H9.98713C10.7232 0.850638 11.4335 1.12128 11.983 1.61101C12.5325 2.10075 12.8827 2.7754 12.9671 3.50659L13.7751 10.5066C13.8236 10.9268 13.7827 11.3525 13.6551 11.7557C13.5275 12.159 13.316 12.5307 13.0346 12.8465C12.7532 13.1623 12.4082 13.415 12.0223 13.588C11.6363 13.7611 11.2181 13.8506 10.7951 13.8506H3.52713C3.10415 13.8506 2.68596 13.7611 2.3 13.588C1.91404 13.415 1.56904 13.1623 1.28763 12.8465C1.00622 12.5307 0.794769 12.159 0.66715 11.7557C0.539531 11.3525 0.498631 10.9268 0.547132 10.5066L1.35513 3.50659ZM4.16113 4.60059C4.16113 4.40167 4.24015 4.21091 4.3808 4.07026C4.52145 3.9296 4.71222 3.85059 4.91113 3.85059C5.11004 3.85059 5.30081 3.9296 5.44146 4.07026C5.58211 4.21091 5.66113 4.40167 5.66113 4.60059V4.85059C5.66113 5.24841 5.81917 5.62994 6.10047 5.91125C6.38178 6.19255 6.76331 6.35059 7.16113 6.35059C7.55896 6.35059 7.94049 6.19255 8.22179 5.91125C8.5031 5.62994 8.66113 5.24841 8.66113 4.85059V4.60059C8.66113 4.40167 8.74015 4.21091 8.8808 4.07026C9.02145 3.9296 9.21222 3.85059 9.41113 3.85059C9.61004 3.85059 9.80081 3.9296 9.94146 4.07026C10.0821 4.21091 10.1611 4.40167 10.1611 4.60059V4.85059C10.1611 5.64624 9.84506 6.4093 9.28245 6.97191C8.71984 7.53452 7.95678 7.85059 7.16113 7.85059C6.36548 7.85059 5.60242 7.53452 5.03981 6.97191C4.4772 6.4093 4.16113 5.64624 4.16113 4.85059V4.60059Z" fill="white"/>
</svg>
