<svg width="16" height="16" viewBox="0 0 16 16" fill="none" xmlns="http://www.w3.org/2000/svg">
<g clip-path="url(#clip0_1223_7847)">
<path fill-rule="evenodd" clip-rule="evenodd" d="M8.57696 14.8637C8.46946 14.8977 8.35308 14.8897 8.25121 14.8414C8.20092 14.8178 8.15628 14.7837 8.12035 14.7413C8.08442 14.699 8.05803 14.6494 8.04298 14.5959L7.68897 13.232C7.56516 12.7553 7.38542 12.295 7.1535 11.8606C6.7928 11.186 6.24766 10.6677 5.74194 10.2319L4.67249 9.30966C4.59078 9.23902 4.52695 9.15003 4.48623 9.04998C4.44551 8.94993 4.42906 8.84166 4.43822 8.73403L5.04211 1.74912C5.05662 1.57932 5.13425 1.42113 5.25968 1.30576C5.3851 1.19038 5.54921 1.12621 5.71963 1.1259H9.17713C11.5094 1.1259 13.475 2.74867 13.8521 4.92848L14.3764 7.96281C14.3934 8.06059 14.3888 8.16092 14.363 8.25676C14.3372 8.35259 14.2908 8.44164 14.2269 8.51765C14.1631 8.59366 14.0835 8.6548 13.9935 8.69681C13.9036 8.73881 13.8056 8.76065 13.7063 8.76081H9.85316C9.12656 8.76081 8.57398 9.4123 8.69149 10.1292L9.18457 13.1368C9.2515 13.5488 9.23291 13.9697 9.12805 14.3743C9.09816 14.4811 9.0419 14.5787 8.96445 14.6581C8.887 14.7375 8.79084 14.7962 8.6848 14.8287L8.57696 14.8637ZM7.76632 15.8461C8.12605 16.0188 8.53826 16.0473 8.91832 15.9257L9.02616 15.8907C9.31151 15.8013 9.56956 15.641 9.77621 15.4249C9.98286 15.2088 10.1314 14.9438 10.2079 14.6547C10.3524 14.1002 10.3787 13.5214 10.2853 12.9561L9.79218 9.94851C9.79066 9.93964 9.7911 9.93054 9.79347 9.92186C9.79583 9.91318 9.80007 9.90512 9.80588 9.89825C9.81169 9.89137 9.81893 9.88585 9.8271 9.88208C9.83527 9.8783 9.84416 9.87635 9.85316 9.87637H13.7056C14.8211 9.87637 15.666 8.87088 15.4756 7.77242L14.9513 4.73809C14.4761 1.99604 12.0218 0.0103346 9.17713 0.0103346H5.71963C4.78776 0.0103346 4.01133 0.724295 3.93101 1.65244L3.32638 8.63809C3.30192 8.92178 3.34512 9.20722 3.45243 9.47097C3.55973 9.73471 3.72809 9.96923 3.94366 10.1553L5.0146 11.0775C5.50172 11.4969 5.91151 11.9037 6.16883 12.3864C6.35996 12.7434 6.50796 13.1212 6.60911 13.5124L6.96311 14.8756C7.01829 15.0861 7.11875 15.282 7.25748 15.4496C7.39621 15.6172 7.56987 15.7526 7.76632 15.8461ZM1.53404 9.87563C1.67777 9.88191 1.81837 9.83242 1.92647 9.73748C2.03456 9.64255 2.1018 9.50952 2.11413 9.36619L2.83553 1.00988C2.84775 0.885441 2.83448 0.759817 2.79652 0.640682C2.75856 0.521546 2.69671 0.411399 2.61476 0.316967C2.5328 0.222535 2.43245 0.145802 2.31985 0.0914524C2.20724 0.0371032 2.08473 0.00627931 1.95981 0.000863438C1.8349 -0.00455243 1.71018 0.0155533 1.5933 0.0599528C1.47641 0.104352 1.3698 0.172113 1.27997 0.259098C1.19015 0.346082 1.11901 0.450463 1.07088 0.565867C1.02275 0.68127 0.998653 0.805273 1.00006 0.930302V9.31859C0.999927 9.46249 1.05542 9.60087 1.15493 9.70482C1.25444 9.80876 1.39027 9.86949 1.53404 9.87563Z" fill="#111111"/>
<path d="M8.57696 14.8637C8.46946 14.8977 8.35308 14.8897 8.25121 14.8414C8.20092 14.8178 8.15628 14.7837 8.12035 14.7413C8.08442 14.699 8.05803 14.6494 8.04298 14.5959L7.68897 13.232C7.56516 12.7553 7.38542 12.295 7.1535 11.8606C6.7928 11.186 6.24766 10.6677 5.74194 10.2319L4.67249 9.30966C4.59078 9.23902 4.52695 9.15003 4.48623 9.04998C4.44551 8.94993 4.42906 8.84166 4.43822 8.73403L5.04211 1.74912C5.05662 1.57933 5.13425 1.42113 5.25968 1.30576C5.3851 1.19038 5.54921 1.12621 5.71963 1.1259H9.17713C11.5094 1.1259 13.475 2.74867 13.8521 4.92848L14.3764 7.96281C14.3934 8.06059 14.3888 8.16092 14.363 8.25676C14.3372 8.35259 14.2908 8.44163 14.2269 8.51765C14.1631 8.59366 14.0835 8.6548 13.9935 8.69681C13.9036 8.73881 13.8056 8.76065 13.7063 8.76081H9.85316C9.12656 8.76081 8.57398 9.4123 8.69149 10.1292L9.18457 13.1368C9.2515 13.5488 9.23291 13.9697 9.12805 14.3743C9.09816 14.4811 9.0419 14.5787 8.96445 14.6581C8.887 14.7375 8.79084 14.7962 8.6848 14.8287L8.57696 14.8637ZM8.57696 14.8637L8.74801 15.3947M9.02616 15.8907L8.91832 15.9257C8.53826 16.0473 8.12605 16.0188 7.76632 15.8461C7.56987 15.7526 7.39621 15.6172 7.25748 15.4496C7.11875 15.282 7.01829 15.0861 6.96311 14.8756L6.60911 13.5124C6.50796 13.1212 6.35996 12.7434 6.16883 12.3864C5.91151 11.9037 5.50172 11.4969 5.0146 11.0775L3.94366 10.1553C3.72809 9.96923 3.55973 9.73471 3.45243 9.47097C3.34512 9.20722 3.30192 8.92178 3.32638 8.6381L3.93101 1.65244C4.01133 0.724295 4.78776 0.0103346 5.71963 0.0103346H9.17713C12.0218 0.0103346 14.4761 1.99604 14.9513 4.73809L15.4756 7.77242C15.666 8.87088 14.8211 9.87637 13.7056 9.87637H9.85316C9.84416 9.87635 9.83527 9.8783 9.8271 9.88208C9.81893 9.88585 9.81169 9.89137 9.80588 9.89825C9.80007 9.90512 9.79583 9.91318 9.79347 9.92186C9.7911 9.93054 9.79066 9.93964 9.79218 9.94851L10.2853 12.9561C10.3787 13.5214 10.3524 14.1002 10.2079 14.6547C10.1314 14.9438 9.98286 15.2088 9.77621 15.4249C9.56956 15.641 9.31151 15.8013 9.02616 15.8907ZM9.02616 15.8907L8.85511 15.3597M1.53404 9.87563C1.67777 9.88191 1.81837 9.83242 1.92647 9.73748C2.03456 9.64255 2.1018 9.50952 2.11413 9.36619L2.83553 1.00988C2.84775 0.885441 2.83448 0.759817 2.79652 0.640682C2.75856 0.521546 2.69671 0.411399 2.61476 0.316967C2.5328 0.222535 2.43245 0.145802 2.31985 0.0914524C2.20724 0.0371032 2.08473 0.00627931 1.95981 0.000863438C1.8349 -0.00455243 1.71018 0.0155533 1.5933 0.0599528C1.47641 0.104352 1.3698 0.172113 1.27997 0.259098C1.19015 0.346082 1.11901 0.450463 1.07088 0.565867C1.02275 0.68127 0.998653 0.805273 1.00006 0.930302V9.31859C0.999927 9.46249 1.05542 9.60087 1.15493 9.70482C1.25444 9.80876 1.39027 9.86949 1.53404 9.87563Z" stroke="#111111" stroke-width="0.2"/>
</g>
<defs>
<clipPath id="clip0_1223_7847">
<rect width="16" height="16" fill="white"/>
</clipPath>
</defs>
</svg>
