<svg width="16" height="16" viewBox="0 0 16 16" fill="none" xmlns="http://www.w3.org/2000/svg">
<g clip-path="url(#clip0_1265_2589)">
<path fill-rule="evenodd" clip-rule="evenodd" d="M7.76632 15.8461C8.12605 16.0188 8.53826 16.0473 8.91832 15.9257L9.02616 15.8907C9.31151 15.8013 9.56956 15.641 9.77621 15.4249C9.98286 15.2088 10.1314 14.9438 10.2079 14.6547C10.3524 14.1002 10.3787 13.5214 10.2853 12.9561L9.79218 9.94851C9.79066 9.93964 9.7911 9.93054 9.79347 9.92186C9.79583 9.91318 9.80007 9.90512 9.80588 9.89825C9.81169 9.89137 9.81893 9.88585 9.8271 9.88208C9.83527 9.8783 9.84416 9.87635 9.85316 9.87637H13.7056C14.8211 9.87637 15.666 8.87088 15.4756 7.77242L14.9513 4.73809C14.4761 1.99604 12.0218 0.0103346 9.17713 0.0103346H5.71963C4.78776 0.0103346 4.01133 0.724294 3.93101 1.65244L3.32638 8.63809C3.30192 8.92178 3.34512 9.20722 3.45243 9.47097C3.55973 9.73471 3.72809 9.96923 3.94366 10.1553L5.0146 11.0775C5.50172 11.4969 5.91151 11.9037 6.16883 12.3864C6.35996 12.7434 6.50796 13.1212 6.60911 13.5124L6.96311 14.8756C7.01829 15.0861 7.11875 15.282 7.25748 15.4496C7.39621 15.6172 7.56987 15.7526 7.76632 15.8461ZM1.53404 9.87563C1.67777 9.88191 1.81837 9.83242 1.92647 9.73748C2.03456 9.64255 2.1018 9.50952 2.11413 9.36619L2.83553 1.00988C2.84775 0.88544 2.83448 0.759817 2.79652 0.640682C2.75856 0.521546 2.69671 0.411399 2.61476 0.316967C2.5328 0.222535 2.43245 0.145802 2.31985 0.0914524C2.20724 0.0371032 2.08473 0.00627931 1.95981 0.000863438C1.8349 -0.00455243 1.71018 0.0155533 1.5933 0.0599528C1.47641 0.104352 1.3698 0.172113 1.27997 0.259098C1.19015 0.346082 1.11901 0.450463 1.07088 0.565867C1.02275 0.68127 0.998653 0.805273 1.00006 0.930302V9.31859C0.999927 9.46249 1.05542 9.60087 1.15493 9.70482C1.25444 9.80876 1.39027 9.86949 1.53404 9.87563Z" fill="#2E2929"/>
</g>
<defs>
<clipPath id="clip0_1265_2589">
<rect width="16" height="16" fill="white"/>
</clipPath>
</defs>
</svg>
