<svg width="24" height="24" viewBox="0 0 24 24" fill="none" xmlns="http://www.w3.org/2000/svg">
<path d="M20.641 9.37456L19.0182 6.56206C18.6701 5.95934 18.0969 5.51953 17.4246 5.33933C16.7524 5.15913 16.036 5.2533 15.4332 5.60113C15.097 5.79537 14.8087 6.06256 14.5894 6.383L12.9563 3.56206C12.7258 3.1634 12.3945 2.83238 11.9956 2.60225C11.5967 2.37212 11.1443 2.25098 10.6838 2.25098C10.2233 2.25098 9.7709 2.37212 9.37201 2.60225C8.97313 2.83238 8.64181 3.1634 8.41131 3.56206C7.93194 3.18461 7.33605 2.98593 6.72608 3.00017C6.11611 3.01442 5.53015 3.2407 5.06893 3.64013C4.6077 4.03955 4.30002 4.58717 4.19877 5.18885C4.09752 5.79053 4.20903 6.40868 4.51412 6.93706L4.66318 7.19581C4.27529 7.2259 3.89913 7.34285 3.56256 7.538C2.95974 7.88623 2.51995 8.45967 2.33991 9.13215C2.15988 9.80464 2.25435 10.5211 2.60256 11.1239L6.35256 17.6227C6.89207 18.5626 7.61255 19.3862 8.47232 20.046C9.3321 20.7057 10.3141 21.1885 11.3616 21.4664C12.0625 21.6537 12.7849 21.7482 13.5104 21.7477C14.9574 21.7452 16.3782 21.3622 17.6304 20.6371C18.8826 19.912 19.9221 18.8703 20.6445 17.6166C21.3669 16.3629 21.7469 14.9412 21.7463 13.4942C21.7457 12.0472 21.3645 10.6258 20.641 9.37269V9.37456ZM20.0166 15.2471C19.6709 16.5363 18.9506 17.6941 17.947 18.574C16.9433 19.454 15.7013 20.0166 14.3779 20.1908C13.0545 20.365 11.7092 20.1429 10.512 19.5527C9.31483 18.9624 8.31953 18.0304 7.65193 16.8746L3.90193 10.3758C3.75918 10.1179 3.72339 9.81419 3.80226 9.53012C3.88113 9.24605 4.06836 9.00429 4.32366 8.85686C4.57896 8.70942 4.88194 8.6681 5.1674 8.74178C5.45286 8.81545 5.69799 8.99824 5.85006 9.25081L7.65287 12.3746C7.70066 12.4626 7.7656 12.5401 7.84385 12.6026C7.9221 12.6652 8.01208 12.7114 8.10847 12.7385C8.20487 12.7657 8.30573 12.7733 8.40511 12.7609C8.50449 12.7484 8.60037 12.7162 8.6871 12.6661C8.77382 12.616 8.84964 12.5491 8.91007 12.4692C8.97049 12.3893 9.01431 12.2982 9.03894 12.2011C9.06357 12.104 9.0685 12.003 9.05345 11.904C9.0384 11.8049 9.00367 11.7099 8.95131 11.6246L5.81256 6.18706C5.73546 6.05902 5.68466 5.91689 5.66311 5.76899C5.64156 5.62108 5.6497 5.47037 5.68706 5.32565C5.72441 5.18093 5.79022 5.0451 5.88066 4.9261C5.97109 4.8071 6.08433 4.70731 6.21377 4.63257C6.3432 4.55783 6.48623 4.50962 6.6345 4.49077C6.78277 4.47193 6.93331 4.48281 7.07732 4.5228C7.22134 4.56278 7.35595 4.63107 7.47328 4.72366C7.59061 4.81625 7.68831 4.93129 7.76068 5.06206L10.6876 10.1246C10.7354 10.2126 10.8003 10.2901 10.8785 10.3526C10.9568 10.4152 11.0468 10.4614 11.1432 10.4885C11.2396 10.5157 11.3404 10.5233 11.4398 10.5109C11.5392 10.4984 11.6351 10.4662 11.7218 10.4161C11.8085 10.366 11.8843 10.2991 11.9448 10.2192C12.0052 10.1393 12.049 10.0482 12.0736 9.95108C12.0983 9.854 12.1032 9.75297 12.0881 9.65395C12.0731 9.55494 12.0384 9.45994 11.986 9.37456L9.70974 5.43706C9.63265 5.30902 9.58185 5.16689 9.5603 5.01899C9.53875 4.87108 9.54689 4.72037 9.58424 4.57565C9.62159 4.43093 9.68741 4.2951 9.77784 4.1761C9.86828 4.0571 9.98152 3.95731 10.111 3.88257C10.2404 3.80783 10.3834 3.75962 10.5317 3.74077C10.68 3.72193 10.8305 3.73281 10.9745 3.7728C11.1185 3.81279 11.2531 3.88107 11.3705 3.97366C11.4878 4.06625 11.5855 4.18129 11.6579 4.31206L14.791 9.74019C14.0612 10.4813 13.6107 11.4522 13.516 12.488C13.4213 13.5238 13.6883 14.5603 14.2716 15.4214C14.3835 15.586 14.5562 15.6994 14.7517 15.7367C14.9472 15.774 15.1495 15.7321 15.3141 15.6202C15.4787 15.5083 15.5921 15.3356 15.6294 15.1401C15.6667 14.9446 15.6248 14.7423 15.5129 14.5777C15.0821 13.9398 14.9131 13.1607 15.0406 12.4017C15.1682 11.6426 15.5826 10.9616 16.1982 10.4996C16.3449 10.3896 16.4463 10.2296 16.483 10.05C16.5198 9.8703 16.4895 9.68339 16.3979 9.52456L15.7716 8.43706C15.692 8.309 15.6389 8.16623 15.6155 8.01724C15.5922 7.86825 15.599 7.71608 15.6356 7.56978C15.6722 7.42348 15.7379 7.28604 15.8287 7.16562C15.9195 7.04521 16.0336 6.94428 16.1641 6.86883C16.2947 6.79339 16.4391 6.74497 16.5888 6.72645C16.7385 6.70793 16.8904 6.7197 17.0354 6.76105C17.1804 6.8024 17.3157 6.87248 17.4331 6.96714C17.5505 7.0618 17.6476 7.1791 17.7188 7.31206L19.3416 10.1246C19.7869 10.8912 20.0758 11.7384 20.1917 12.6173C20.3075 13.4962 20.248 14.3894 20.0166 15.2452V15.2471ZM17.2735 2.97238C17.324 2.78032 17.4485 2.61611 17.6199 2.51576C17.7912 2.41541 17.9954 2.38711 18.1876 2.43706C18.9039 2.62584 19.5755 2.95512 20.1634 3.40576C20.7513 3.8564 21.2438 4.41941 21.6122 5.06206L21.6432 5.1155C21.6955 5.20088 21.7303 5.29588 21.7453 5.39489C21.7604 5.49391 21.7554 5.59494 21.7308 5.69201C21.7062 5.78909 21.6624 5.88026 21.6019 5.96013C21.5415 6.03999 21.4657 6.10695 21.379 6.15705C21.2922 6.20714 21.1964 6.23936 21.097 6.25179C20.9976 6.26423 20.8967 6.25664 20.8004 6.22947C20.704 6.20229 20.614 6.15609 20.5357 6.09358C20.4575 6.03107 20.3925 5.95351 20.3447 5.8655L20.3138 5.81206C20.0434 5.34109 19.682 4.92862 19.2507 4.59867C18.8193 4.26872 18.3266 4.02788 17.8013 3.89019C17.6098 3.83816 17.4467 3.71235 17.3478 3.54032C17.2489 3.36829 17.2221 3.16406 17.2735 2.97238ZM7.5835 22.2183C7.46036 22.3744 7.28031 22.4752 7.0829 22.4986C6.88548 22.5219 6.68686 22.466 6.53068 22.343C5.40892 21.457 4.46699 20.3645 3.75568 19.1246C3.70644 19.0392 3.67448 18.9451 3.66163 18.8474C3.64878 18.7497 3.6553 18.6505 3.68081 18.5553C3.70631 18.4602 3.75031 18.371 3.81029 18.2928C3.87027 18.2147 3.94505 18.1491 4.03037 18.0999C4.11569 18.0506 4.20987 18.0187 4.30754 18.0058C4.40521 17.993 4.50445 17.9995 4.5996 18.025C4.69475 18.0505 4.78395 18.0945 4.8621 18.1545C4.94024 18.2145 5.00581 18.2892 5.05506 18.3746C5.67157 19.4479 6.48744 20.3936 7.45881 21.1608C7.53676 21.2218 7.60186 21.2977 7.65036 21.384C7.69886 21.4702 7.72979 21.5653 7.74139 21.6636C7.75298 21.7619 7.74499 21.8615 7.71789 21.9567C7.6908 22.0519 7.64512 22.1408 7.5835 22.2183Z" fill="white"/>
</svg>
