<svg width="16" height="15" viewBox="0 0 16 15" fill="none" xmlns="http://www.w3.org/2000/svg">
<path d="M14.4914 2.11431C14.1179 1.74061 13.6744 1.44416 13.1863 1.2419C12.6982 1.03965 12.175 0.935547 11.6466 0.935547C11.1182 0.935547 10.595 1.03965 10.1069 1.2419C9.61878 1.44416 9.17529 1.74061 8.80176 2.11431L8.02656 2.88951L7.25136 2.11431C6.49686 1.35981 5.47354 0.935938 4.40652 0.935938C3.33949 0.935938 2.31617 1.35981 1.56167 2.11431C0.807174 2.86881 0.383301 3.89213 0.383301 4.95915C0.383301 6.02618 0.807174 7.0495 1.56167 7.804L2.33687 8.5792L8.02656 14.2689L13.7162 8.5792L14.4914 7.804C14.8651 7.43047 15.1616 6.98697 15.3638 6.49885C15.5661 6.01072 15.6702 5.48752 15.6702 4.95915C15.6702 4.43078 15.5661 3.90759 15.3638 3.41946C15.1616 2.93133 14.8651 2.48784 14.4914 2.11431Z" fill="#E82153"/>
</svg>
