<svg width="18" height="16" viewBox="0 0 18 16" fill="none" xmlns="http://www.w3.org/2000/svg">
<path d="M15.4914 2.11431C15.1179 1.74061 14.6744 1.44416 14.1863 1.2419C13.6982 1.03965 13.175 0.935547 12.6466 0.935547C12.1182 0.935547 11.595 1.03965 11.1069 1.2419C10.6188 1.44416 10.1753 1.74061 9.80176 2.11431L9.02656 2.88951L8.25136 2.11431C7.49686 1.35981 6.47354 0.935938 5.40652 0.935938C4.33949 0.935938 3.31617 1.35981 2.56167 2.11431C1.80717 2.86881 1.3833 3.89213 1.3833 4.95915C1.3833 6.02618 1.80717 7.0495 2.56167 7.804L3.33687 8.5792L9.02656 14.2689L14.7162 8.5792L15.4914 7.804C15.8651 7.43047 16.1616 6.98697 16.3638 6.49885C16.5661 6.01072 16.6702 5.48752 16.6702 4.95915C16.6702 4.43078 16.5661 3.90759 16.3638 3.41946C16.1616 2.93133 15.8651 2.48784 15.4914 2.11431Z" stroke="#111111" stroke-width="1.5" stroke-linecap="round" stroke-linejoin="round"/>
</svg>
