<svg width="40" height="40" viewBox="0 0 40 40" fill="none" xmlns="http://www.w3.org/2000/svg">
<g clip-path="url(#clip0_1026_2253)">
<circle cx="15.6152" cy="24.5843" r="11" transform="rotate(-135 15.6152 24.5843)" stroke="white" stroke-width="2"/>
<path d="M22.9218 15.8632C22.5313 16.2537 22.5313 16.8869 22.9218 17.2774C23.3123 17.6679 23.9455 17.6679 24.336 17.2774L22.9218 15.8632ZM33.1613 8.03789C33.1613 7.48561 32.7136 7.03789 32.1613 7.03789L23.1613 7.03789C22.609 7.03789 22.1613 7.48561 22.1613 8.03789C22.1613 8.59018 22.609 9.03789 23.1613 9.03789L31.1613 9.03789L31.1613 17.0379C31.1613 17.5902 31.609 18.0379 32.1613 18.0379C32.7136 18.0379 33.1613 17.5902 33.1613 17.0379L33.1613 8.03789ZM24.336 17.2774L32.8684 8.745L31.4542 7.33078L22.9218 15.8632L24.336 17.2774Z" fill="white"/>
</g>
<defs>
<clipPath id="clip0_1026_2253">
<rect width="40" height="40" fill="white"/>
</clipPath>
</defs>
</svg>
