<svg width="10" height="10" viewBox="0 0 10 10" fill="none" xmlns="http://www.w3.org/2000/svg">
<path d="M9.17647 10L6.05882 6.88235C5.76471 7.11765 5.42647 7.30392 5.04412 7.44118C4.66176 7.57843 4.2549 7.64706 3.82353 7.64706C2.7549 7.64706 1.85049 7.27696 1.11029 6.53677C0.370098 5.79657 0 4.89216 0 3.82353C0 2.7549 0.370098 1.85049 1.11029 1.11029C1.85049 0.370098 2.7549 0 3.82353 0C4.89216 0 5.79657 0.370098 6.53677 1.11029C7.27696 1.85049 7.64706 2.7549 7.64706 3.82353C7.64706 4.2549 7.57843 4.66176 7.44118 5.04412C7.30392 5.42647 7.11765 5.76471 6.88235 6.05882L10 9.17647L9.17647 10ZM3.82353 6.47059C4.55882 6.47059 5.18382 6.21324 5.69853 5.69853C6.21324 5.18382 6.47059 4.55882 6.47059 3.82353C6.47059 3.08824 6.21324 2.46324 5.69853 1.94853C5.18382 1.43382 4.55882 1.17647 3.82353 1.17647C3.08824 1.17647 2.46324 1.43382 1.94853 1.94853C1.43382 2.46324 1.17647 3.08824 1.17647 3.82353C1.17647 4.55882 1.43382 5.18382 1.94853 5.69853C2.46324 6.21324 3.08824 6.47059 3.82353 6.47059Z" fill="white"/>
</svg>
