<svg width="28" height="21" viewBox="0 0 28 21" fill="none" xmlns="http://www.w3.org/2000/svg">
<path d="M27.0807 3.19594L21.419 0.109375C21.2908 0.0384011 21.1467 0.000791505 21.0001 0H17.4998C17.2678 0 17.0452 0.0921874 16.8811 0.256282C16.717 0.420376 16.6248 0.642936 16.6248 0.875C16.6248 1.57119 16.3482 2.23887 15.8559 2.73116C15.3635 3.22344 14.6958 3.5 13.9996 3.5C13.3033 3.5 12.6356 3.22344 12.1433 2.73116C11.651 2.23887 11.3744 1.57119 11.3744 0.875C11.3744 0.642936 11.2822 0.420376 11.1181 0.256282C10.954 0.0921874 10.7314 0 10.4993 0H6.99904C6.85206 0.000608199 6.70761 0.0382236 6.57901 0.109375L0.918418 3.19594C0.514903 3.40917 0.21242 3.7737 0.0772927 4.2096C-0.0578345 4.6455 -0.0145766 5.11719 0.197581 5.52125L2.3054 9.54734C2.45866 9.8368 2.68839 10.0787 2.96959 10.2467C3.25078 10.4146 3.57267 10.5023 3.90021 10.5H6.12397V19.25C6.12397 19.7141 6.30836 20.1592 6.63657 20.4874C6.96479 20.8156 7.40994 21 7.8741 21H20.125C20.5892 21 21.0344 20.8156 21.3626 20.4874C21.6908 20.1592 21.8752 19.7141 21.8752 19.25V10.5H24.1C24.4276 10.5023 24.7495 10.4146 25.0307 10.2467C25.3118 10.0787 25.5416 9.8368 25.6948 9.54734L27.8027 5.52125C28.0147 5.11706 28.0578 4.64526 27.9225 4.20935C27.7871 3.77343 27.4844 3.40898 27.0807 3.19594ZM3.90021 8.75C3.88404 8.75076 3.86813 8.74572 3.85536 8.73578L1.75848 4.73156L6.12397 2.34938V8.75H3.90021ZM20.125 19.25H7.8741V1.75H9.71175C9.91364 2.73783 10.4505 3.62561 11.2317 4.26319C12.0128 4.90077 12.9902 5.24902 13.9985 5.24902C15.0068 5.24902 15.9842 4.90077 16.7653 4.26319C17.5464 3.62561 18.0833 2.73783 18.2852 1.75H20.125V19.25ZM24.1449 8.73469C24.1388 8.74014 24.1317 8.74431 24.124 8.74695C24.1163 8.74958 24.1082 8.75062 24.1 8.75H21.8752V2.34938L26.2418 4.73156L24.1449 8.73469Z" fill="white"/>
</svg>
